<svg xmlns="http://www.w3.org/2000/svg" xmlns:xlink="http://www.w3.org/1999/xlink" width="860" zoomAndPan="magnify" viewBox="0 0 645 803.249975" height="1071" preserveAspectRatio="xMidYMid meet" version="1.0"><defs><clipPath id="8c78e43ff8"><path d="M 108 0 L 644.699219 0 L 644.699219 729 L 108 729 Z M 108 0 " clip-rule="nonzero"/></clipPath></defs><g clip-path="url(#8c78e43ff8)"><path fill="#653827" d="M 125.996094 418.324219 C 142.960938 384.152344 171.160156 353.492188 173.382812 315.457031 C 176.660156 260.339844 123.890625 212.125 131.496094 157.472656 C 137.578125 113.585938 181.222656 83.980469 224.515625 74.382812 C 267.695312 64.789062 312.859375 69.351562 356.738281 63.148438 C 411.847656 55.425781 462.980469 31.082031 513.996094 8.964844 C 565.011719 -13.152344 618.488281 -33.867188 674.066406 -33.632812 C 729.644531 -33.398438 788.5 -7.769531 813.421875 41.96875 C 828.285156 71.457031 829.804688 105.863281 841.390625 136.757812 C 863.152344 194.921875 916.742188 233.773438 959.800781 278.359375 C 1002.976562 322.949219 1038.78125 388.367188 1013.742188 445.125 C 986.480469 506.914062 905.042969 522.011719 858.707031 571.046875 C 815.414062 616.800781 802.660156 692.167969 745.675781 719.082031 C 706.945312 737.339844 660.609375 725.636719 621.878906 707.265625 C 583.148438 688.890625 546.878906 663.847656 505.105469 654.484375 C 405.179688 632.132812 297.179688 686.785156 197.019531 651.910156 C 109.730469 621.25 88.902344 492.871094 125.996094 418.324219 Z M 125.996094 418.324219 " fill-opacity="1" fill-rule="nonzero"/></g></svg>