<svg xmlns="http://www.w3.org/2000/svg" xmlns:xlink="http://www.w3.org/1999/xlink" width="860" zoomAndPan="magnify" viewBox="0 0 645 803.249975" height="1071" preserveAspectRatio="xMidYMid meet" version="1.0"><defs><clipPath id="fba26cfd96"><path d="M 0.300781 0 L 644.699219 0 L 644.699219 707.339844 L 0.300781 707.339844 Z M 0.300781 0 " clip-rule="nonzero"/></clipPath><clipPath id="28b76a532d"><path d="M 0.300781 0 L 436 0 L 436 467 L 0.300781 467 Z M 0.300781 0 " clip-rule="nonzero"/></clipPath></defs><g clip-path="url(#fba26cfd96)"><path fill="#f2ebd7" d="M 677.421875 1.679688 C 677.421875 1.679688 669.445312 172.277344 547.992188 255.511719 C 433.324219 334.105469 262.929688 271.886719 217.058594 461.847656 C 171.191406 651.8125 -31.964844 707.453125 -31.964844 707.453125 L -31.964844 0.0585938 Z M 677.421875 1.679688 " fill-opacity="1" fill-rule="nonzero"/></g><g clip-path="url(#28b76a532d)"><path fill="#b6916b" d="M 435.316406 1.140625 C 435.316406 1.140625 430.046875 113.476562 350.046875 168.320312 C 274.523438 220.089844 162.273438 179.113281 132.074219 304.234375 C 101.878906 429.359375 -31.964844 466.007812 -31.964844 466.007812 L -31.964844 0.0585938 Z M 435.316406 1.140625 " fill-opacity="1" fill-rule="nonzero"/></g></svg>